<?xml version="1.0" standalone="no"?><svg xmlns="http://www.w3.org/2000/svg" viewBox="0 0 1440 320"><path fill="#635BFF" fill-opacity="1" d="M0,224L17.1,240C34.3,256,69,288,103,256C137.1,224,171,128,206,101.3C240,75,274,117,309,165.3C342.9,213,377,267,411,250.7C445.7,235,480,149,514,128C548.6,107,583,149,617,160C651.4,171,686,149,720,160C754.3,171,789,213,823,197.3C857.1,181,891,107,926,69.3C960,32,994,32,1029,74.7C1062.9,117,1097,203,1131,229.3C1165.7,256,1200,224,1234,208C1268.6,192,1303,192,1337,170.7C1371.4,149,1406,107,1423,85.3L1440,64L1440,320L1422.9,320C1405.7,320,1371,320,1337,320C1302.9,320,1269,320,1234,320C1200,320,1166,320,1131,320C1097.1,320,1063,320,1029,320C994.3,320,960,320,926,320C891.4,320,857,320,823,320C788.6,320,754,320,720,320C685.7,320,651,320,617,320C582.9,320,549,320,514,320C480,320,446,320,411,320C377.1,320,343,320,309,320C274.3,320,240,320,206,320C171.4,320,137,320,103,320C68.6,320,34,320,17,320L0,320Z"></path></svg>