<svg viewBox="0 0 500 500" xmlns="http://www.w3.org/2000/svg"><path d="m159.91 476.36a.5.5 0 0 1 -.49-.4c-6.93-32.92-39.93-47.4-40.27-47.55a.5.5 0 0 1 .39-.92c.34.14 33.81 14.82 40.85 48.26a.5.5 0 0 1 -.39.59h-.1z" fill="#9ab3da"/><path d="m127.42 432.36s-2.93-4.54-2.12-8.37 7.64.38 2.12 8.37z" fill="#404b7c"/><path d="m134.2 437.08s-3.39-7.6-.06-11.89 6.04 6.57.06 11.89z" fill="#404b7c"/><path d="m142.81 444.73s-3.15-6.61-1.36-12.81 9.5.52 1.36 12.81z" fill="#404b7c"/><path d="m122.59 429.56s-2.19-3.74-5.64-3.71-.5 5.15 5.64 3.71z" fill="#404b7c"/><path d="m129.92 434s-6-2-8.73-.7 2.73 5.39 8.73.7z" fill="#404b7c"/><path d="m136.35 438.79s-7.35-1.79-9.47 1.79 5.84 4.7 9.47-1.79z" fill="#404b7c"/><path d="m144.5 446.52s-8.2-1.94-10.42 2.31 7.07 5.44 10.42-2.31z" fill="#404b7c"/><path d="m147.9 450.54s-.14-8.42 3.5-12.1 7.48 7.05-3.5 12.1z" fill="#404b7c"/><path d="m149.68 452.9s-7.65.55-7.59 4.95 5.57 3.2 7.59-4.95z" fill="#404b7c"/><path d="m153 458a23.19 23.19 0 0 1 2.63-8.15c2.13-3.99 8.97 2.73-2.63 8.15z" fill="#404b7c"/><path d="m154.08 460s-5.45 1.05-5.76 4.37 5.19 1.63 5.76-4.37z" fill="#404b7c"/><path d="m155 461.64s3.59-4.51 5.67-3.12-1.67 5.23-5.67 3.12z" fill="#404b7c"/><path d="m336.46 473.17s-32.67-30.58-17.1-69.28a206.49 206.49 0 0 0 12.64 21.33c8.13 12.18 12.13 27.34 4.46 47.95z" fill="#9ab3da"/><path d="m335.56 469.47a.5.5 0 0 1 -.44-.26c-13-23.69-16.16-59.05-16.19-59.41a.5.5 0 0 1 .46-.54.51.51 0 0 1 .54.46c0 .35 3.13 35.51 16.07 59a.5.5 0 0 1 -.44.75z" fill="#404b7c"/><path d="m336.46 473.17s3.29-41.22 39.9-46.26a95.76 95.76 0 0 0 -9.21 21.27c-3.5 12.05-12.49 24.99-30.69 24.99z" fill="#9ab3da"/><path d="m338.94 471h-.15a.5.5 0 0 1 -.32-.63c7.86-24.3 33.31-40.7 33.57-40.87a.5.5 0 0 1 .54.84c-.25.16-25.41 16.38-33.16 40.33a.5.5 0 0 1 -.48.33z" fill="#404b7c"/><path d="m336.46 473.17s-8.55-18-3.95-42.32 32-39.68 32-39.68-1.75 7.67-1.32 21.49-1.96 42.97-26.73 60.51z" fill="#404b7c"/><path d="m336.68 469.94a.5.5 0 0 1 -.5-.48c-1.74-41.59 22.45-71.3 22.7-71.6a.5.5 0 0 1 .77.64c-.24.29-24.19 29.72-22.47 70.92a.5.5 0 0 1 -.48.52z" fill="#9ab3da"/><path d="m372.74 473.67h-51.84a.5.5 0 0 1 0-1h51.84a.5.5 0 0 1 0 1z" fill="#404b7c"/><path d="m229.49 473.67h-51.84a.5.5 0 0 1 0-1h51.84a.5.5 0 0 1 0 1z" fill="#404b7c"/><path d="m340.15 476.42h-80.88a.5.5 0 0 1 0-1h80.88a.5.5 0 0 1 0 1z" fill="#404b7c"/><path d="m173.61 476.42h-21a.5.5 0 0 1 0-1h21a.5.5 0 0 1 0 1z" fill="#404b7c"/><path d="m273 431.38 1.5 12.37h8.38l.12-12.75z" fill="#ecbdbb"/><path d="m319.38 469.12h-51.13s-.1-2.82.22-7.12a78.33 78.33 0 0 1 4.28-21.12h11.25a31.31 31.31 0 0 0 17.25 10.87c9.1 2.25 15.06 3.43 17.22 10.25a23.66 23.66 0 0 1 .91 7.12z" fill="#404b7c"/><path d="m319.38 469.12h-51.13s-.1-2.82.22-7.12h50a23.66 23.66 0 0 1 .91 7.12z" fill="#9ab3da"/><path d="m290.33 433.67a72.25 72.25 0 0 1 -21.33.66s-9.06-76.33-17.82-126.84c-.83-4.77-1.65-9.31-2.47-13.54q-.51-2.73-1-5.28v-38.12a36.86 36.86 0 0 1 2.53-13.7c2.67-6.67 8.06-14.18 18.8-14.18 13.54 0 18.57 12.74 20.38 20.38a37.6 37.6 0 0 1 1 8.32c.07 18.99.83 133.18-.09 182.3z" fill="#f68d88"/><path d="m254.88 288.29-3.7 19.2c-.83-4.77-1.65-9.31-2.47-13.54 2.29-1.67 5.29-3.04 6.17-5.66z" fill="#404b7c"/><path d="m287.38 274.68a.43.43 0 0 1 -.16 0c-8.08-3.21-6.95-16.38-6.89-16.94a.44.44 0 0 1 .47-.39.43.43 0 0 1 .39.47c0 .13-1.13 13.09 6.36 16.06a.43.43 0 0 1 -.17.8z" fill="#ecbdbb"/><path d="m274.33 430.76a.43.43 0 0 1 -.43-.4c-3-38.86-19.64-140.08-19.81-141.09a.43.43 0 0 1 .85-.14c.17 1 16.85 102.27 19.82 141.17a.43.43 0 0 1 -.4.46z" fill="#ecbdbb"/><path d="m249.67 293.76a.43.43 0 0 1 -.27-.76l3.81-3.07a6.05 6.05 0 0 0 2.25-4.41c.52-10.32.78-39.9.79-40.19a.43.43 0 0 1 .43-.43.43.43 0 0 1 .42.43c0 .3-.27 29.89-.79 40.23a6.92 6.92 0 0 1 -2.57 5l-3.81 3.07a.42.42 0 0 1 -.26.13z" fill="#ecbdbb"/><path d="m202.43 431.38-.24 12.37h8.38l1.91-12.75z" fill="#ecbdbb"/><path d="m219.73 455c-5.87-5.37-7.41-14.12-7.41-14.12h-11.25c-2.82 7.6-5.61 15.59-6 21.12-.32 4.3-.22 7.12-.22 7.12h30.86c-.07-6.89-.71-9.31-5.98-14.12z" fill="#404b7c"/><path d="m195.07 462c-.32 4.3-.22 7.12-.22 7.12h30.86a24.36 24.36 0 0 0 -.79-7.12z" fill="#9ab3da"/><path d="m249.67 247.75v45.58l-33.67 141.46s-10 2.58-17-2.54c0 0 7.83-157.95 8.5-182.25.75-27.33 38.83-43 42.17-2.25z" fill="#f68d88"/><path d="m249.67 293.76a.43.43 0 0 1 -.43-.43v-40.14a.43.43 0 1 1 .86 0v40.15a.43.43 0 0 1 -.43.42z" fill="#ecbdbb"/><path d="m214.55 274.68a.43.43 0 1 1 0-.86c5 0 7.83-5.55 8.36-16.51a.43.43 0 0 1 .45-.41.43.43 0 0 1 .41.45c-.57 11.5-3.67 17.33-9.22 17.33z" fill="#ecbdbb"/><path d="m203.33 430.76a.43.43 0 0 1 -.4-.46l12.5-174a.42.42 0 0 1 .46-.4.43.43 0 0 1 .4.46l-12.5 174a.43.43 0 0 1 -.46.4z" fill="#ecbdbb"/><path d="m287.38 120.25s29 39.75 35.29 61.75-17.17 26-33.67-1.75-22.75-42.5-22.75-42.5z" fill="#9ab3da"/><path d="m296.67 252.67c-54.5 9.83-95.17 0-95.17 0 2-21.68 3.74-46.65 5-68.88 1.41-24.08 2.35-44.94 2.78-55 .17-4 .26-6.33.26-6.33s13.67-15 38.09-16a57.36 57.36 0 0 1 39.71 13.75c9.91 57.79 9.33 132.46 9.33 132.46z" fill="#9ab3da"/><path d="m294.55 186.34a.5.5 0 0 1 -.5-.47c-1.53-23.86-3.79-45-6.72-62.89a.5.5 0 0 1 1-.16c2.94 17.9 5.2 39.09 6.73 63a.5.5 0 0 1 -.47.53z" fill="#404b7c"/><path d="m254.52 254.83a.5.5 0 0 1 -.46-.54 460.53 460.53 0 0 0 -1.35-88.89.5.5 0 1 1 1-.13 461.45 461.45 0 0 1 1.29 89.1.5.5 0 0 1 -.48.46z" fill="#404b7c"/><path d="m212 248.17a.5.5 0 0 1 -.45-.54c3.29-36.88 2.18-82.16 2.16-82.61a.5.5 0 1 1 1 0c0 .45 1.13 45.79-2.17 82.72a.5.5 0 0 1 -.54.43z" fill="#404b7c"/><path d="m219.33 160.46s.51 15.39-12.79 23.33c1.41-24.08 2.35-44.94 2.78-55 5.15 2.21 11.9 9.21 10.01 31.67z" fill="#404b7c"/><path d="m244.5 98.67c-19.92 2.17-27.67 25.17-27.67 25.17s21.28 11.51 36.64 44c0 0 11.53-39.17 22.53-59a111 111 0 0 1 -13-4.71c-6.5-2.88-12-6.13-18.5-5.46z" fill="#9ab3da"/><path d="m253.47 168.34a.5.5 0 0 1 -.45-.29c-15.11-32-36.21-43.66-36.42-43.78a.5.5 0 0 1 -.24-.6 46.06 46.06 0 0 1 4-8.27.5.5 0 1 1 .86.52 48 48 0 0 0 -3.78 7.69c2.89 1.71 21.83 13.77 35.92 42.84 1.92-6.34 10.94-35.5 20-53.75a.5.5 0 0 1 .89.45c-10.11 20.39-20.2 54.49-20.25 54.85a.5.5 0 0 1 -.44.36z" fill="#404b7c"/><path d="m253.17 160.67s-16-25.07-18.68-35c-.07-.27-.14-.52-.19-.76-2-9.34-.6-21 10.12-21.84 5.08-.41 14.33 3.42 15.75 16a21.25 21.25 0 0 1 .14 2.2c.38 13.47-7.14 39.4-7.14 39.4z" fill="#f68d88"/><path d="m260.31 121.28a29.58 29.58 0 0 0 -13.39-3.2c-7 2.12-10.79 5.69-12.43 7.6-.07-.27-.14-.52-.19-.76-2-9.34-.6-21 10.12-21.84 5.08-.41 14.33 3.42 15.75 16a21.25 21.25 0 0 1 .14 2.2z" fill="#f9f5fd"/><path d="m252.75 155.93a.43.43 0 0 1 -.42-.37l-4.59-34.42a.43.43 0 1 1 .85-.11l4.59 34.42a.43.43 0 0 1 -.37.48z" fill="#ecbdbb"/><path d="m274.58 135-10.58 5s5.08 60.75 10.33 77 43 39.75 43 39.75l9.25-6.75z" fill="#dd6b6b"/><path d="m274.58 135s4.5 66.25 9.5 78 42.5 37 42.5 37 25.75-28.25 27.5-41-1.75-77.75-1.75-77.75-42-6.5-77.75 3.75z" fill="#f68d88"/><path d="m324 248.68a.43.43 0 0 1 -.25-.08c-8.33-5.78-35.84-25.42-40.1-35.43-4.35-10.22-8.25-60.27-9.34-75.37a.43.43 0 0 1 .4-.46.42.42 0 0 1 .46.4c.78 10.72 4.87 64.74 9.27 75.09 4.17 9.8 31.52 29.31 39.8 35.06a.43.43 0 0 1 -.24.79z" fill="#ecbdbb"/><path d="m298.33 176.13s-.75-12.37-1.25-21.62 7.25-14.51 16.92-14.38 15.63 5.25 16.25 13.25 1.5 22 1.5 22l-6.12.13s-.12-16.37-.87-21.5-4-8.67-11-8.42-10.29 4-10.17 9 1.41 21.41 1.41 21.41z" fill="#f9d4d4"/><path d="m290.83 175.5s2.38 31.75 3.38 41.88c0 0 28.75.25 49-2.37 0 0 .5-27.75-.75-40.75 0-.01-28.63-1.01-51.63 1.24z" fill="#f9d4d4"/><path d="m324.5 187.29a6.81 6.81 0 0 1 -4.5 6.33v16.8h-4v-16.67a6 6 0 0 1 -4.25-5.79 6.61 6.61 0 0 1 6.16-6.71 6.17 6.17 0 0 1 6.59 6.04z" fill="#f68d88"/><path d="m340.46 100.5-10.99 8.14-10.99-8.14v-16.25l10.99-8.14 10.99 8.14z" fill="#9ab3da"/><path d="m382.34 169.07-7.66 5.66-7.67-5.66v-11.34l7.67-5.67 7.66 5.67z" fill="#404b7c"/><path d="m392.26 152.56-4.96 3.67-4.96-3.67v-7.33l4.96-3.67 4.96 3.67z" fill="#9ab3da"/><path d="m362.07 253.21-7.5 5.54-7.49-5.54v-11.09l7.49-5.54 7.5 5.54z" fill="#9ab3da"/><path d="m208.25 248.25a34.5 34.5 0 1 0 34.5 34.5 34.5 34.5 0 0 0 -34.5-34.5zm0 59.75a25.25 25.25 0 1 1 25.25-25.25 25.24 25.24 0 0 1 -25.25 25.25z" fill="#404b7c"/><rect fill="#9ab3da" height="161.71" rx="1.79" width="13.17" x="201.67" y="315"/><path d="m193.63 435.33h8.04v34.38h-8.04z" fill="#404b7c"/><path d="m193.63 434.71v35.63a3.63 3.63 0 0 1 -3.63 3.66h-14.5a3.62 3.62 0 0 1 -3.62-3.62v-5.51h11.06a2.06 2.06 0 0 0 2.06-2.06v-4a2.06 2.06 0 0 0 -2.06-2.06h-11.06v-8.38h11.06a2.06 2.06 0 0 0 2.06-2.06v-4a2.06 2.06 0 0 0 -2.06-2.06h-11.06v-5.5a3.62 3.62 0 0 1 3.62-3.62h14.5a3.63 3.63 0 0 1 3.63 3.58z" fill="#9ab3da"/><rect fill="#404b7c" height="16.08" rx="1.79" width="19.58" x="198.46" y="302.92"/><path d="m209.58 122.5s-31.92 29.33-41.75 57.33c0 0 3.67 28.17 13.67 47l16.83-5.83-4.17-36.33 24.83-22s5.84-32.34-9.41-40.17z" fill="#9ab3da"/><path d="m219 163.17h-.09a.5.5 0 0 1 -.4-.58c.05-.28 4.94-28.25-6.63-38a.5.5 0 1 1 .64-.77c12 10.08 7.18 37.72 7 38.9a.5.5 0 0 1 -.52.45z" fill="#404b7c"/><path d="m192.63 184.5a.5.5 0 0 1 -.37-.17c-5.16-5.76-15.26-5.46-15.36-5.46a.49.49 0 0 1 -.52-.48.5.5 0 0 1 .48-.52c.43 0 10.67-.31 16.14 5.79a.5.5 0 0 1 -.37.84z" fill="#404b7c"/><path d="m177.38 224.5s10.5-9.5 23.88-8.5l2 10.38s-4.87 9.25-19.75 10.13a66.55 66.55 0 0 1 -6.13-12.01z" fill="#404b7c"/><path d="m215.83 260.5c-.58 1.17-2.58 1.75-3.16-.92 0 0-.34 2-1.92 2.17s-2-2.17-2-2.17-1.17 2.34-2.67 2.09-1.41-2.84-1.41-2.84-1.75 1.92-3 .84-.59-4.67-.42-7.67c0 0-9-7.92-9.5-10.33a19.9 19.9 0 0 1 -.25-5.09l-3.11-5.36a26.65 26.65 0 0 1 10.3-4.25l3.56 7.2s11.58 9.5 13 11.08 1.17 14.08.58 15.25z" fill="#ecbdbb"/><path d="m205.09 257.41h-.09a.5.5 0 0 1 -.44-.55s.5-4.48.62-7.12a.48.48 0 0 1 .52-.48.5.5 0 0 1 .48.52c-.12 2.67-.62 7.14-.63 7.19a.5.5 0 0 1 -.46.44z" fill="#404b7c"/><path d="m209 257.84h-.06a.5.5 0 0 1 -.44-.55s.56-4.88.56-7.29a.5.5 0 0 1 1 0c0 2.47-.54 7.2-.57 7.4a.5.5 0 0 1 -.49.44z" fill="#404b7c"/><path d="m212.72 257.13a.5.5 0 0 1 -.46-.54s.34-4 .34-6.27a.5.5 0 0 1 1 0c0 2.28-.33 6.19-.35 6.35a.5.5 0 0 1 -.53.46z" fill="#404b7c"/><path d="m184.67 235a.5.5 0 0 1 -.39-.81 19.08 19.08 0 0 1 3.83-3.38 27 27 0 0 1 10.49-4.33c.88-.17 1.81-.31 2.78-.4a.5.5 0 1 1 .09 1c-.93.09-1.83.22-2.68.38a26 26 0 0 0 -10.11 4.17 18.47 18.47 0 0 0 -3.61 3.18.5.5 0 0 1 -.4.19z" fill="#9ab3da"/><path d="m250.17 111.5a6 6 0 0 1 -2.5 4.17c-7.17-.25-7.17-5.17-7.17-5.17l.33-13.91.1-4.42.07-3.09 8.67 3.67.17 6.41.09 3.37z" fill="#ecbdbb"/><path d="m249.93 102.53c-4.83-.94-7.57-3.33-9.1-5.94l.1-4.42.07-3.09 8.67 3.67.17 6.41z" fill="#404b7c"/><path d="m256.54 83.64a4.18 4.18 0 0 1 5.71-2.54c4.38 1.58.75 10.71-5.37 9.08z" fill="#ecbdbb"/><path d="m257.46 87.89h-.16a.5.5 0 0 1 -.32-.63c.05-.16 1.35-4 4.8-4.34a.5.5 0 0 1 .09 1c-2.81.26-3.93 3.62-3.95 3.66a.5.5 0 0 1 -.46.31z" fill="#404b7c"/><path d="m260 87.3a.5.5 0 0 1 -.5-.5 6.09 6.09 0 0 0 -.52-2.2.5.5 0 1 1 .91-.41 7 7 0 0 1 .61 2.61.5.5 0 0 1 -.5.5z" fill="#404b7c"/><path d="m259.83 68.39s3.83 4.58 3.83 6.83-6.75 9.92-6.75 9.92l-1.91-15.33z" fill="#404b7c"/><path d="m234.33 76.64c-.63 9.82 7.1 21.66 15.38 21.92s11.12-20.58 8.2-28-22.49-10.83-23.58 6.08z" fill="#ecbdbb"/><path d="m239.17 87.89-1.17-3.89s3.83-2.17 4.33-9.75c0 0 10.83 3.92 19.33-3.75s5.08-22.08 2.92-23.17-14.68 5.3-19.58 12c0 0 1.42-5.75-2.58-4.5s-9.42 13.4-9.42 13.4-5.42-2.17-7.67 2.08 11.44 17.58 11.44 17.58h2.39z" fill="#404b7c"/><path d="m237.19 86.52s-2.26-6.33-7-5.82-5.15 15 8.66 9.45z" fill="#ecbdbb"/><path d="m236.78 88.8a.5.5 0 0 1 -.43-.24c-2.88-4.67-6.44-3.55-6.48-3.54a.5.5 0 1 1 -.32-.95s4.35-1.38 7.65 4a.5.5 0 0 1 -.42.73z" fill="#404b7c"/><path d="m232.59 89.17a.5.5 0 0 1 -.49-.42 7.12 7.12 0 0 1 .7-4.06.5.5 0 1 1 .89.45 6.15 6.15 0 0 0 -.61 3.44.5.5 0 0 1 -.41.58h-.09z" fill="#404b7c"/><path d="m244.1 80.74s2.84-1.81 4.2.36a.75.75 0 0 1 .93-.26c.52.3-.4 1.93-.4 1.93a13 13 0 0 0 -4.73-2.03z" fill="#404b7c"/><path d="m256.47 81.65s-2.17-2.18-2.94-.37a.7.7 0 0 0 -.74-.19c-.57.36.49 1.77.49 1.77a5.45 5.45 0 0 1 3.19-1.21z" fill="#404b7c"/><ellipse cx="247.03" cy="84.89" fill="#404b7c" rx="1.26" ry="1.56" transform="matrix(.99996491 -.00837748 .00837748 .99996491 -.7 2.08)"/><circle cx="247.3" cy="84.33" fill="#fff" r=".34" transform="matrix(.99996491 -.00837748 .00837748 .99996491 -.7 2.08)"/><ellipse cx="254.48" cy="84.82" fill="#404b7c" rx="1.26" ry="1.56" transform="matrix(.99996491 -.00837748 .00837748 .99996491 -.7 2.14)"/><circle cx="254.75" cy="84.27" fill="#fff" r=".34" transform="matrix(.99996491 -.00837748 .00837748 .99996491 -.7 2.14)"/><path d="m251.37 90.22a3.2 3.2 0 0 1 -.73-.08.5.5 0 0 1 .23-1s1.29.29 1.6-.51a.23.23 0 0 0 0-.23 2 2 0 0 0 -1.26-.34.5.5 0 0 1 -.5-.49v-3.06a.5.5 0 0 1 .49-.51.49.49 0 0 1 .51.49v2.6a2.26 2.26 0 0 1 1.59.75 1.19 1.19 0 0 1 .1 1.15 2 2 0 0 1 -2.03 1.23z" fill="#404b7c"/><path d="m251.49 94.27a.5.5 0 0 1 -.43-.24c-1.42-2.35-5-1.55-5-1.54a.5.5 0 0 1 -.23-1c.17 0 4.31-1 6.11 2a.5.5 0 0 1 -.45.78z" fill="#404b7c"/><g fill="#9ab3da"><path d="m336 280.13a3.69 3.69 0 1 1 3.69-3.69 3.69 3.69 0 0 1 -3.69 3.69zm0-6.37a2.69 2.69 0 1 0 2.69 2.69 2.69 2.69 0 0 0 -2.69-2.7z"/><path d="m299.86 119.35a3.69 3.69 0 1 1 3.69-3.69 3.69 3.69 0 0 1 -3.69 3.69zm0-6.37a2.69 2.69 0 1 0 2.69 2.69 2.69 2.69 0 0 0 -2.69-2.67z"/><path d="m214.36 88.09a3.69 3.69 0 1 1 3.69-3.69 3.69 3.69 0 0 1 -3.69 3.69zm0-6.37a2.69 2.69 0 1 0 2.69 2.69 2.69 2.69 0 0 0 -2.69-2.69z"/><path d="m202.22 112.32a2.66 2.66 0 1 1 2.66-2.66 2.66 2.66 0 0 1 -2.66 2.66zm0-4.32a1.66 1.66 0 1 0 1.66 1.66 1.66 1.66 0 0 0 -1.66-1.66z"/><path d="m360.5 95.44a.5.5 0 0 1 -.5-.5v-5.19a.5.5 0 0 1 1 0v5.19a.5.5 0 0 1 -.5.5z"/><path d="m365.91 97.47h-3.91a.5.5 0 0 1 0-1h3.88a.5.5 0 0 1 .03 1z"/><path d="m360.5 104.69a.5.5 0 0 1 -.5-.5v-5.19a.5.5 0 0 1 1 0v5.19a.5.5 0 0 1 -.5.5z"/><path d="m359 97.47h-3.88a.5.5 0 0 1 0-1h3.88a.5.5 0 0 1 0 1z"/><path d="m366.85 205.48a.5.5 0 0 1 -.5-.5v-5.19a.5.5 0 0 1 1 0v5.21a.5.5 0 0 1 -.5.48z"/><path d="m372.25 207.51h-3.88a.5.5 0 1 1 0-1h3.88a.5.5 0 1 1 0 1z"/><path d="m366.85 214.73a.5.5 0 0 1 -.5-.5v-5.23a.5.5 0 0 1 1 0v5.19a.5.5 0 0 1 -.5.54z"/><path d="m365.33 207.51h-3.88a.5.5 0 0 1 0-1h3.88a.5.5 0 1 1 0 1z"/><path d="m156 230.72a.5.5 0 0 1 -.5-.5v-5.22a.5.5 0 0 1 1 0v5.19a.5.5 0 0 1 -.5.53z"/><path d="m161.41 232.75h-3.89a.5.5 0 0 1 0-1h3.89a.5.5 0 0 1 0 1z"/><path d="m156 240a.5.5 0 0 1 -.5-.5v-5.19a.5.5 0 0 1 1 0v5.19a.5.5 0 0 1 -.5.5z"/><path d="m154.48 232.75h-3.89a.5.5 0 0 1 0-1h3.89a.5.5 0 0 1 0 1z"/><path d="m180.5 70.58a18.5 18.5 0 1 0 18.5 18.5 18.5 18.5 0 0 0 -18.5-18.5zm0 26.56a8.06 8.06 0 1 1 8-8.06 8.05 8.05 0 0 1 -8 8.06z"/></g><path d="m165.67 89.58a.5.5 0 0 1 -.5-.5 15.35 15.35 0 0 1 15.33-15.33.5.5 0 0 1 0 1 14.35 14.35 0 0 0 -14.33 14.33.5.5 0 0 1 -.5.5z" fill="#fff"/><path d="m180.5 104.42a.5.5 0 0 1 0-1 14.35 14.35 0 0 0 14.33-14.33.5.5 0 1 1 1 0 15.35 15.35 0 0 1 -15.33 15.33z" fill="#fff"/><path d="m180.5 100.71a11.64 11.64 0 0 1 -11.63-11.63.5.5 0 1 1 1 0 10.64 10.64 0 0 0 10.63 10.63.5.5 0 0 1 0 1z" fill="#fff"/><path d="m191.63 89.58a.5.5 0 0 1 -.5-.5 10.64 10.64 0 0 0 -10.63-10.62.5.5 0 0 1 0-1 11.64 11.64 0 0 1 11.63 11.63.5.5 0 0 1 -.5.49z" fill="#fff"/></svg>